<svg xmlns="http://www.w3.org/2000/svg" width="1200" height="900" viewBox="0 0 1200 900" role="img" aria-label="Illustration d’un entrepreneur qui gère ses chantiers pendant que BureauWeb gère la présence en ligne">
  <defs>
    <linearGradient id="bg" x1="0" x2="1" y1="0" y2="1">
      <stop offset="0" stop-color="#0f172a" stop-opacity="0.08"/>
      <stop offset="1" stop-color="#f97316" stop-opacity="0.10"/>
    </linearGradient>
  </defs>
  <rect width="1200" height="900" fill="url(#bg)"/>
  <g fill="#0f172a" fill-opacity="0.06">
    <circle cx="180" cy="160" r="110"/>
    <circle cx="1030" cy="220" r="140"/>
    <circle cx="860" cy="760" r="180"/>
  </g>
  <g>
    <rect x="170" y="190" width="860" height="520" rx="28" fill="#ffffff" opacity="0.95"/>
    <rect x="210" y="240" width="780" height="56" rx="14" fill="#0f172a" opacity="0.08"/>
    <rect x="210" y="320" width="500" height="22" rx="11" fill="#0f172a" opacity="0.10"/>
    <rect x="210" y="360" width="560" height="22" rx="11" fill="#0f172a" opacity="0.08"/>
    <rect x="210" y="410" width="420" height="22" rx="11" fill="#0f172a" opacity="0.08"/>
    <rect x="210" y="470" width="260" height="56" rx="18" fill="#f97316" opacity="0.92"/>
    <rect x="490" y="470" width="220" height="56" rx="18" fill="#0f172a" opacity="0.14"/>

    <g>
      <rect x="760" y="320" width="230" height="170" rx="18" fill="#0f172a" opacity="0.06"/>
      <rect x="785" y="350" width="180" height="18" rx="9" fill="#0f172a" opacity="0.12"/>
      <rect x="785" y="380" width="150" height="14" rx="7" fill="#0f172a" opacity="0.10"/>
      <rect x="785" y="408" width="170" height="14" rx="7" fill="#0f172a" opacity="0.08"/>
      <rect x="785" y="440" width="120" height="34" rx="12" fill="#f97316" opacity="0.85"/>
    </g>

    <g>
      <rect x="210" y="560" width="520" height="120" rx="18" fill="#0f172a" opacity="0.05"/>
      <rect x="240" y="590" width="240" height="16" rx="8" fill="#0f172a" opacity="0.12"/>
      <rect x="240" y="620" width="420" height="14" rx="7" fill="#0f172a" opacity="0.08"/>
      <rect x="240" y="646" width="380" height="14" rx="7" fill="#0f172a" opacity="0.08"/>
    </g>
  </g>
</svg>
